<svg xmlns="http://www.w3.org/2000/svg" viewBox="0 7.670000076293945 231.77000427246094 54.582584381103516" data-asc="0.9765625" width="231.77000427246094" height="54.582584381103516"><defs/><g fill="#000000"><g transform="translate(0, 0)"><path d="M0 38.57L0.02 37.87Q0.29 30.57 3.71 24.07Q6.86 18.14 11.65 14.48Q16.38 10.86 20.87 10.86Q24.29 10.86 26.27 13.23Q27.95 15.28 27.95 18.26Q27.95 21.83 25.34 25.29Q23.83 27.29 22.12 28.17Q21.31 28.61 20.62 28.61Q19.92 28.61 19.34 28.32Q18.75 28.03 18.31 27.59Q17.41 26.64 17.41 25.88Q17.41 25.12 17.80 24.83Q21.80 21.95 23.24 18.90Q23.80 17.72 23.80 16.60Q23.80 14.23 21.56 14.23Q18.04 14.23 14.31 18.07Q10.82 21.61 8.45 26.95Q5.98 32.45 5.83 37.04L5.81 37.96Q5.81 43.46 8.13 45.17Q8.96 45.78 10.12 45.78Q11.28 45.78 12.30 45.48Q13.33 45.19 14.36 44.68Q16.02 43.82 18.60 41.72Q19.38 41.11 19.90 41.89Q20.34 42.53 20.34 43.36Q20.34 44.75 19.96 45.25Q19.58 45.75 18.66 46.44Q17.75 47.12 16.43 47.71Q13.35 49.07 10.40 49.07Q7.45 49.07 5.64 48.35Q3.83 47.63 2.59 46.29Q0 43.46 0 38.57ZM28.30 47.17Q28.30 47.17 27.78 46.68Q27.27 46.19 26.68 44.69Q26.10 43.19 26.07 41.14Q26.05 39.09 26.57 36.99Q27.10 34.89 28.06 32.93Q29.03 30.98 30.38 29.27Q31.74 27.56 33.37 26.29Q36.94 23.56 40.77 23.56Q45.80 23.56 47.58 27.98Q48.85 31.18 47.73 35.72Q46.70 39.89 43.97 43.38Q41.26 46.88 37.57 48.34Q35.72 49.07 33.92 49.07Q32.13 49.07 30.73 48.61Q29.32 48.14 28.30 47.17M32.96 35.33Q32.96 35.33 32.59 36.23Q32.23 37.13 31.80 39.04Q31.37 40.94 31.40 42.64Q31.42 44.34 31.92 45.30Q32.42 46.26 33.54 46.26Q34.67 46.26 35.75 45.50Q36.84 44.73 37.87 43.46Q38.89 42.19 39.79 40.53Q40.70 38.87 41.38 37.06Q42.87 33.13 42.82 30.08Q42.82 27.39 41.72 26.66Q41.28 26.37 40.49 26.37Q39.70 26.37 38.67 27.09Q37.65 27.81 36.62 29.03Q35.60 30.25 34.64 31.88Q33.69 33.52 32.96 35.33ZM69.36 28.17Q68.60 28.17 67.21 29.63Q65.82 31.08 64.79 32.28L62.72 34.77L58.72 39.87Q57.30 42.55 56.49 44.34L55.18 47.17Q54.66 48.22 54.28 48.65Q53.91 49.07 53.26 49.07Q52.61 49.07 52.01 48.84Q51.42 48.61 50.98 48.24Q50.05 47.46 50.05 46.53Q50.05 46.17 50.59 45.09L51.51 43.12Q51.95 42.24 52.54 40.87L53.91 37.52Q56.79 30.32 56.79 28.22Q56.79 27.10 56.05 26.56L55.57 26.22Q55.32 26.05 55.32 25.62Q55.32 25.20 55.65 24.80Q55.98 24.41 56.52 24.12Q57.62 23.56 58.73 23.56Q59.84 23.56 60.45 23.80Q61.06 24.05 61.47 24.46Q62.38 25.32 62.38 26.25Q62.38 27.17 62.15 28.11Q61.91 29.05 61.56 30.02Q61.21 30.98 60.82 31.91Q60.42 32.84 60.11 33.52L59.62 34.57Q59.42 34.96 59.52 34.81Q62.23 31.05 63.09 29.98L64.79 27.93Q66.67 25.73 67.75 25.02Q69.92 23.56 71.17 23.56Q72.41 23.56 73.27 23.88Q74.12 24.19 74.76 24.78Q76.10 26.03 76.10 27.95Q76.10 29.88 75.22 31.98Q74.34 34.08 73.69 35.39Q73.05 36.69 72.46 38.04Q70.63 42.11 70.63 43.97Q70.63 44.80 71.95 44.80Q72.97 44.80 73.82 44.36Q74.66 43.92 74.90 43.92Q75.42 43.92 75.42 44.43Q75.42 46.61 73.19 48.07Q71.70 49.07 70.46 49.07Q69.21 49.07 68.40 48.80Q67.58 48.54 66.94 47.95Q65.50 46.66 65.50 44.34Q65.50 41.50 67.29 37.26Q68.58 34.35 69.12 33.28L69.95 31.54Q70.70 29.98 70.70 29.08Q70.70 28.17 69.36 28.17ZM92.77 42.43Q93.48 42.43 93.48 43.38Q93.48 44.19 92.99 44.95Q92.33 46.36 90.36 47.63Q88.11 49.07 85.84 49.07Q81.91 49.07 80.86 45.56Q79.61 41.38 84.59 27.86Q81.79 27.61 81.54 26.88Q81.47 26.66 81.47 26.40Q81.47 26.15 81.70 25.81Q81.93 25.46 82.30 25.15Q83.15 24.44 84.03 24.44L85.96 24.44Q88.60 18.26 89.72 17.41Q90.26 17.02 90.92 17.02Q91.58 17.02 92.02 17.19Q92.46 17.36 92.80 17.68Q93.58 18.41 93.58 19.31Q93.58 19.80 93.29 20.43L91.48 24.37L92.07 24.37Q93.58 24.37 94.51 24.34Q94.51 24.34 95.90 24.32Q96.36 24.29 97.06 24.29Q97.75 24.29 97.75 24.80Q97.75 28.03 90.14 28.03L89.94 28.03L88.28 32.32Q85.47 39.94 85.47 42.99Q85.47 43.85 85.86 44.32Q86.25 44.80 87.33 44.80Q88.40 44.80 89.28 44.43Q90.16 44.07 90.82 43.62Q91.48 43.16 91.96 42.80Q92.43 42.43 92.77 42.43ZM97.83 48.24Q97.83 48.24 97.58 48.06Q97.34 47.88 97.05 47.42Q96.75 46.97 96.73 46.64Q96.70 46.31 96.86 45.84Q97.02 45.36 97.29 44.68Q102.27 32.42 102.27 28.22Q102.20 27.05 101.46 26.56L100.98 26.22Q100.76 26.05 100.74 25.62Q100.73 25.20 101.05 24.80Q101.37 24.41 101.88 24.12Q102.93 23.56 104.04 23.56Q105.15 23.56 105.77 23.80Q106.40 24.05 106.84 24.46Q107.76 25.34 107.78 26.32Q107.79 27.29 107.56 28.30Q107.32 29.30 107.01 30.26Q106.69 31.23 106.37 32.09Q106.05 32.96 105.96 33.37Q105.76 34.23 105.81 34.45Q106.40 33.94 106.52 33.45L107.47 31.64Q110.64 25.93 113.67 24.07Q114.55 23.56 115.78 23.56Q117.02 23.56 117.77 24.43Q118.53 25.29 118.57 26.34Q118.60 27.39 118.42 28.09Q118.24 28.78 117.87 29.39Q117.07 30.76 115.92 30.76Q115.60 30.76 115.33 30.54L114.79 30.08Q113.99 29.37 113.24 29.37Q112.50 29.37 111.44 30.35Q110.38 31.32 109.23 32.86Q105.37 37.96 102.93 44.29L101.86 47.12Q101.44 48.17 101.12 48.62Q100.81 49.07 100.18 49.07Q99.56 49.07 98.94 48.84Q98.32 48.61 97.83 48.24ZM131.32 17.83Q131.32 17.83 131.05 18.12Q130.79 18.41 130.10 18.76Q129.42 19.12 128.66 19.20Q127.91 19.29 127.23 18.97Q126.56 18.65 126.07 18.07Q125.02 16.85 125.02 15.60Q125.02 14.36 125.43 13.73Q125.83 13.11 126.44 12.72Q127.61 11.96 128.65 11.96Q129.69 11.96 130.26 12.11Q130.83 12.26 131.32 12.60Q132.52 13.40 132.52 14.56Q132.52 15.72 132.19 16.49Q131.86 17.26 131.32 17.83M126.32 44.26Q126.95 44.26 126.95 45.09Q126.95 46.19 125.95 47.36Q124.49 49.07 122.02 49.07Q119.19 49.07 118.14 46.78Q117.75 45.97 117.75 44.82Q117.75 43.68 118.15 42.27Q118.55 40.87 119.15 39.32Q119.75 37.77 120.46 36.18L121.75 33.11Q123.17 29.66 123.17 28.56Q123.17 27.47 122.94 27.11Q122.71 26.76 122.44 26.56L121.95 26.22Q121.70 26.05 121.70 25.62Q121.70 25.20 122.03 24.80Q122.36 24.41 122.90 24.12Q124.00 23.56 125.46 23.56Q129.05 23.56 129.05 25.44Q129.05 27.64 127.91 30.46Q126.76 33.28 125.95 35.01L124.49 38.38Q122.88 42.09 122.88 43.73Q122.88 44.80 123.95 44.80Q125 44.80 125.54 44.53Q126.07 44.26 126.32 44.26ZM132.67 41.89Q132.67 40.48 132.87 39.18Q133.08 37.89 133.41 36.57Q133.74 35.25 134.16 33.94L136.89 25.59Q140.14 15.43 140.97 9.72Q141.24 7.67 142.97 7.67Q143.99 7.67 144.70 8.20Q146.00 9.25 145.96 10.44Q145.92 11.62 145.62 13.07Q145.31 14.53 144.84 16.24Q144.36 17.94 143.75 19.82Q142.11 24.66 141.31 26.81L139.92 30.44Q142.04 27.15 143.38 25.93Q146.07 23.56 148.97 23.56Q153.25 23.56 154.66 28.03Q155.13 29.57 155.13 31.86Q155.13 34.16 154.46 36.41Q153.78 38.67 152.64 40.61Q151.49 42.55 149.96 44.12Q148.44 45.68 146.75 46.78Q143.19 49.07 139.84 49.07Q136.47 49.07 134.55 47.02Q132.67 44.97 132.67 41.89M139.50 45.90Q141.80 45.90 144.17 43.85Q147.78 40.72 149.02 34.91Q149.44 33.01 149.44 30.94Q149.44 28.88 148.97 28.05Q148.51 27.22 147.55 27.22Q146.58 27.22 145.53 28.00Q144.48 28.78 143.33 30.07Q142.19 31.35 141.06 33.02Q139.94 34.69 139.04 36.47Q137.06 40.41 137.06 43.15Q137.06 45.90 139.50 45.90ZM181.52 44.02Q182.08 44.02 182.08 44.58Q182.08 46.70 179.98 48.14Q178.56 49.07 176.66 49.07Q175.10 49.07 174.27 48.34Q172.78 47.02 172.78 45.12Q172.78 42.70 174.80 37.72Q171.04 42.80 169.53 44.47Q168.02 46.14 166.89 47.07Q164.45 49.07 162.48 49.07Q159.45 49.07 158.45 46.46Q158.15 45.65 158.15 44.62Q158.15 43.58 158.51 42.30Q158.86 41.02 159.42 39.62Q159.99 38.23 160.64 36.77L161.96 33.84Q164.50 28.20 163.84 27.15Q163.55 26.68 162.74 26.22Q162.45 26.05 162.45 25.62Q162.45 25.20 162.81 24.80Q163.16 24.41 163.72 24.12Q164.92 23.56 166.11 23.56Q167.31 23.56 167.93 23.82Q168.55 24.07 168.95 24.46Q169.75 25.27 169.75 26.25Q169.75 27.22 169.43 28.43Q169.12 29.64 168.60 31.05Q168.09 32.47 167.48 33.98Q165.80 37.94 165.21 39.21L164.31 41.09Q163.55 42.77 163.55 43.46Q163.55 44.14 163.77 44.42Q163.99 44.70 164.56 44.70Q165.14 44.70 165.89 44.17Q166.65 43.63 167.55 42.72Q168.46 41.82 169.43 40.64Q170.41 39.45 171.34 38.18Q173.17 35.69 174.02 34.18Q179.20 25.02 179.54 24.61Q180.32 23.56 181.14 23.56Q181.96 23.56 182.57 23.74Q183.18 23.93 183.62 24.27Q184.64 25.02 184.28 25.78Q178.32 38.21 177.86 41.41Q177.73 42.50 177.73 42.92Q177.73 44.78 178.86 44.78Q179.91 44.78 180.59 44.40Q181.27 44.02 181.52 44.02ZM186.47 48.24Q186.47 48.24 186.23 48.06Q185.99 47.88 185.69 47.42Q185.40 46.97 185.38 46.64Q185.35 46.31 185.51 45.84Q185.67 45.36 185.94 44.68Q190.92 32.42 190.92 28.22Q190.84 27.05 190.11 26.56L189.62 26.22Q189.40 26.05 189.39 25.62Q189.38 25.20 189.70 24.80Q190.01 24.41 190.53 24.12Q191.58 23.56 192.69 23.56Q193.80 23.56 194.42 23.80Q195.04 24.05 195.48 24.46Q196.41 25.34 196.42 26.32Q196.44 27.29 196.20 28.30Q195.97 29.30 195.65 30.26Q195.34 31.23 195.02 32.09Q194.70 32.96 194.60 33.37Q194.41 34.23 194.46 34.45Q195.04 33.94 195.17 33.45L196.12 31.64Q199.29 25.93 202.32 24.07Q203.20 23.56 204.43 23.56Q205.66 23.56 206.42 24.43Q207.18 25.29 207.21 26.34Q207.25 27.39 207.07 28.09Q206.88 28.78 206.52 29.39Q205.71 30.76 204.57 30.76Q204.25 30.76 203.98 30.54L203.44 30.08Q202.64 29.37 201.89 29.37Q201.15 29.37 200.09 30.35Q199.02 31.32 197.88 32.86Q194.02 37.96 191.58 44.29L190.50 47.12Q190.09 48.17 189.77 48.62Q189.45 49.07 188.83 49.07Q188.21 49.07 187.59 48.84Q186.96 48.61 186.47 48.24ZM221.09 43.51Q217.38 49.07 212.87 49.07Q208.79 49.07 207.37 44.73Q206.88 43.24 206.88 41.06Q206.88 38.89 207.51 36.71Q208.13 34.52 209.20 32.57Q210.28 30.62 211.73 28.97Q213.18 27.32 214.84 26.12Q218.31 23.56 221.73 23.56Q225.15 23.56 226.61 26.76Q226.90 26.44 227.15 26.11Q227.39 25.78 227.69 25.49Q228.32 24.85 228.80 24.85Q229.27 24.85 229.80 25.02Q230.32 25.20 230.81 25.49Q232.01 26.20 231.71 26.81Q230.37 29.71 229.47 32.52L225.85 44.04Q221.58 57.15 215.01 60.99Q213.28 62.01 212.01 62.17Q210.74 62.33 210.18 62.18Q209.62 62.04 209.18 61.77Q208.23 61.16 208.23 60.67Q208.23 59.81 209.36 59.62Q210.50 59.42 211.74 58.70Q212.99 57.98 214.11 56.96Q218.73 52.69 221.09 43.51M213.78 35.03Q213.78 35.03 213.46 35.91Q213.13 36.79 212.77 38.64Q212.40 40.48 212.40 41.65Q212.40 42.82 212.48 43.43Q212.55 44.04 212.77 44.51Q213.26 45.53 214.21 45.53Q215.16 45.53 216.09 44.86Q217.02 44.19 218.04 43.02Q219.07 41.85 220.09 40.26Q221.12 38.67 222.05 36.84Q224.10 32.79 224.93 29.10Q224.80 28.42 224.10 27.71Q222.71 26.37 221.58 26.37Q220.46 26.37 219.34 27.06Q218.21 27.76 217.20 28.94Q216.19 30.13 215.31 31.70Q214.43 33.28 213.78 35.03Z"/></g></g></svg>